P2
20 24
255
231 121 54 55 65 143 208 247 254 255 255 255 255 255 255 255 255 255 255 
249 125 87 208 225 194 116 58 62 144 234 254 255 255 255 255 255 255 255 
255 249 119 152 254 255 255 254 243 195 96 53 186 254 255 255 255 255 255 
255 255 249 154 105 254 255 255 255 255 254 251 183 46 189 254 255 255 
255 255 255 255 249 188 85 253 255 255 255 255 255 255 254 170 72 249 255 
255 255 255 255 255 249 213 63 249 255 255 255 255 255 255 255 240 53 210 
255 255 255 255 255 255 249 230 52 241 255 255 255 255 255 255 255 254 
122 132 255 255 255 255 255 255 249 238 53 235 239 217 183 162 162 163 
163 151 62 153 255 255 255 255 255 255 249 238 35 64 51 60 82 85 57 9 28 
105 166 246 255 255 255 255 255 255 249 238 45 189 229 247 253 254 248 
193 87 71 203 254 255 255 255 255 255 255 249 238 54 238 255 255 255 255 
255 254 248 162 47 173 254 255 255 255 255 255 249 238 54 238 255 255 255 
255 255 255 255 254 196 47 229 255 255 255 255 255 249 238 54 238 255 255 
255 255 255 255 255 255 241 53 212 255 255 255 255 255 249 238 54 238 255 
255 255 255 255 255 255 254 158 78 247 255 255 255 255 255 249 238 54 238 
255 255 255 255 255 255 254 222 50 204 254 255 255 255 255 255 249 238 
54 238 255 255 255 255 255 254 238 78 135 253 255 255 255 255 255 255 249 
239 50 175 186 186 186 186 186 161 67 104 245 255 255 255 255 255 255 255 
249 251 172 93 90 90 90 90 90 104 175 247 254 255 255 255 255 255 255 255 
249 255 254 254 254 254 254 254 254 254 254 255 255 255 255 255 255 255 
255 255 249 255 255 255 255 255 255 255 255 255 255 255 255 255 255 255 
255 255 255 255 249 255 255 255 255 255 255 255 255 255 255 255 255 255 
255 255 255 255 255 255 249 255 255 255 255 255 255 255 255 255 255 255 
255 255 255 255 255 255 255 255 249 255 255 255 255 255 255 255 255 255 
255 255 255 255 255 255 255 255 255 255 249 255 255 255 255 255 255 255 
255 255 255 255 255 255 255 255 255 255 255 255 249 
