P2
20 24
255
255 255 255 255 255 255 255 255 255 255 255 255 255 255 255 255 255 255 
255 255 255 255 255 255 255 255 255 255 255 255 255 255 255 255 255 255 
255 255 255 255 255 255 255 255 255 255 255 255 255 255 255 255 255 255 
255 255 255 255 255 255 255 255 255 241 178 190 190 192 224 255 255 255 
255 255 255 244 255 255 255 255 255 255 255 178 12 81 81 81 47 51 130 190 
224 255 255 255 255 255 255 255 255 255 255 241 47 241 255 255 255 202 
130 81 39 112 242 255 255 255 255 255 255 255 255 255 47 222 255 255 255 
255 255 255 224 97 171 251 255 255 255 255 255 255 255 255 74 192 255 255 
255 255 255 255 255 163 160 255 254 255 255 255 255 255 255 255 104 163 
255 255 255 255 255 255 255 163 152 255 251 254 255 255 255 255 255 255 
138 130 255 255 255 255 255 255 255 122 144 255 253 254 255 255 255 255 
255 255 163 74 163 163 163 163 163 151 122 39 204 255 255 254 255 255 255 
255 255 255 163 51 104 112 112 112 112 89 18 104 255 248 255 254 255 255 
255 255 255 255 163 112 255 255 255 255 255 255 222 51 187 255 255 254 
255 255 255 255 255 255 154 112 255 255 255 255 255 255 255 163 147 255 
253 254 255 255 255 255 255 255 138 138 255 255 255 255 255 255 255 215 
167 255 254 255 255 255 255 255 255 255 130 138 255 255 255 255 255 255 
255 197 203 255 254 255 255 255 255 255 255 255 112 163 255 255 255 255 
255 255 241 125 239 255 255 255 255 255 255 255 255 255 97 163 241 241 
241 241 241 241 112 162 255 254 255 255 255 255 255 255 255 255 178 47 
48 58 72 113 133 160 175 247 255 255 255 255 255 255 255 255 255 255 255 
241 241 244 246 250 252 253 255 255 255 255 255 255 255 255 255 255 255 
255 255 255 255 255 255 255 255 255 255 255 255 255 255 255 255 255 255 
255 255 255 255 255 255 255 248 253 255 255 255 255 255 255 255 255 255 
255 255 255 255 255 255 255 255 255 254 255 255 255 255 255 255 255 255 
255 255 255 255 255 255 255 255 255 255 255 255 255 255 255 255 255 255 
255 255 255 255 255 
