P2
20 24
255
255 255 255 255 255 255 255 255 255 255 255 255 255 255 255 255 255 255 
255 255 255 255 255 255 255 255 255 255 254 232 52 92 95 135 214 255 255 
255 255 255 255 255 255 255 255 255 255 254 214 76 194 206 207 85 166 255 
255 255 255 255 255 255 255 255 255 255 255 203 100 179 255 255 255 144 
186 251 255 255 255 255 255 255 255 255 255 255 198 123 170 255 255 255 
255 222 145 179 255 255 255 255 255 255 255 255 255 255 155 80 254 255 
255 255 255 255 102 128 255 255 255 255 255 255 255 255 255 254 176 117 
255 255 255 255 255 255 101 128 255 255 255 255 255 255 255 255 255 216 
179 202 255 255 255 255 255 255 101 128 255 255 255 255 255 255 255 255 
255 137 114 255 255 255 255 255 255 255 101 128 255 255 255 255 255 255 
255 255 255 127 85 212 213 220 255 255 255 255 101 128 255 255 255 255 
255 255 255 255 249 133 22 21 25 60 233 233 233 234 93 128 255 255 255 
255 255 255 255 255 188 198 253 255 255 240 7 0 0 9 5 128 255 255 255 255 
255 255 255 255 101 128 255 255 255 255 255 255 255 255 110 124 234 240 
255 255 255 255 255 255 109 134 255 255 255 255 255 255 255 255 150 168 
255 255 255 255 255 255 255 255 110 135 255 255 255 255 255 255 255 255 
210 208 243 255 255 255 255 255 255 255 184 196 255 255 255 255 255 255 
255 255 246 230 234 255 255 255 255 255 255 255 240 243 255 255 255 255 
255 255 255 255 255 247 245 255 255 255 255 255 255 255 255 255 255 255 
255 255 255 255 255 255 255 255 255 255 255 255 255 255 255 255 255 255 
255 255 255 255 255 255 255 255 255 255 255 255 255 255 255 255 255 255 
255 255 255 255 255 255 255 255 255 255 255 255 255 255 255 255 255 255 
255 255 255 255 255 255 255 255 255 255 255 255 255 255 255 255 255 255 
255 255 255 255 255 255 255 255 255 255 255 255 255 255 255 255 255 255 
255 255 255 255 255 255 255 255 255 255 255 255 255 255 255 255 255 255 
255 255 255 255 255 255 255 255 255 255 255 255 255 255 255 255 255 255 
255 255 255 255 255 255 
