P2
20 24
255
255 255 255 255 255 255 255 255 255 255 255 255 255 255 255 255 255 255 
255 249 255 255 255 255 255 255 255 255 255 255 255 255 255 255 255 255 
255 255 255 249 255 255 255 255 255 255 255 255 255 255 255 255 255 255 
255 255 255 255 255 249 255 255 255 255 255 255 255 255 255 255 255 255 
255 255 255 255 255 255 255 249 255 255 255 255 255 255 255 254 240 234 
245 254 255 255 255 255 255 255 255 249 255 255 255 255 249 223 219 179 
137 149 135 172 225 254 255 255 255 255 255 249 255 255 255 255 230 117 
161 187 243 253 241 196 134 218 254 255 255 255 255 249 255 255 255 255 
249 141 249 255 255 255 255 254 224 135 230 254 255 255 255 249 255 255 
255 255 249 141 249 255 255 255 255 255 254 207 147 250 255 255 255 249 
255 255 255 255 251 140 244 255 255 255 255 255 255 252 161 201 255 255 
255 249 255 255 255 255 253 144 238 255 255 255 255 255 255 254 205 177 
255 255 255 249 255 255 255 255 254 159 222 255 255 255 255 255 254 243 
152 198 255 255 255 249 255 255 255 255 254 188 174 222 222 222 222 221 
202 138 187 251 255 255 255 249 255 255 255 255 255 221 120 163 163 163 
163 161 149 127 229 254 255 255 255 249 255 255 255 255 255 232 151 254 
255 255 255 254 253 210 139 245 255 255 255 249 255 255 255 255 255 234 
152 254 255 255 255 255 255 253 180 166 253 255 255 249 255 255 255 255 
255 234 152 254 255 255 255 255 255 255 250 143 227 255 255 249 255 255 
255 255 255 234 152 254 255 255 255 255 255 254 224 132 219 255 255 249 
255 255 255 255 255 229 151 254 255 255 255 254 237 172 138 217 254 255 
255 249 255 255 255 255 255 181 180 243 243 241 213 169 137 191 245 254 
255 255 255 249 255 255 255 255 255 223 153 144 144 143 158 203 243 254 
255 255 255 255 255 249 255 255 255 255 255 254 253 252 252 252 254 254 
255 255 255 255 255 255 255 249 255 255 255 255 255 255 255 255 255 255 
255 255 255 255 255 255 255 255 255 249 255 255 255 255 255 255 255 255 
255 255 255 255 255 255 255 255 255 255 255 249 
