P2
20 24
255
255 255 255 255 255 255 255 255 255 255 255 255 255 255 255 255 255 255 
255 255 255 255 255 255 255 255 255 255 255 255 255 255 255 255 255 255 
255 255 255 255 255 255 255 255 255 255 255 255 255 255 255 255 255 255 
255 255 251 255 255 255 255 255 255 255 255 255 255 255 254 181 100 244 
255 255 255 255 251 255 255 255 255 255 255 255 255 255 255 254 168 69 
71 215 255 255 255 255 251 255 255 255 255 255 255 255 255 255 254 176 
70 238 169 121 254 255 255 255 251 255 255 255 255 255 255 255 255 250 
129 67 233 255 249 64 227 255 255 255 251 255 255 255 255 255 255 255 255 
193 92 244 255 255 255 159 131 254 255 255 251 255 255 255 255 255 255 
255 255 137 173 255 255 255 255 244 59 248 255 255 251 255 255 255 255 
255 255 255 255 112 197 255 255 255 255 254 108 180 255 255 251 255 255 
255 255 255 255 255 255 89 226 255 255 255 255 255 211 84 254 255 251 255 
255 255 255 255 255 255 254 65 116 165 192 222 230 230 227 58 236 255 251 
255 255 255 255 255 255 255 254 84 165 143 118 89 87 87 87 36 210 255 251 
255 255 255 255 255 255 255 253 67 234 255 255 255 255 255 250 61 233 255 
251 255 255 255 255 255 255 255 231 73 254 255 255 255 255 255 231 80 254 
255 251 255 255 255 255 255 255 255 203 107 255 255 255 255 255 255 219 
85 255 255 251 255 255 255 255 255 255 255 184 133 255 255 255 255 255 
255 248 182 255 255 251 255 255 255 255 255 255 255 229 208 255 255 255 
255 255 255 255 255 255 255 251 255 255 255 255 255 255 255 255 255 255 
255 255 255 255 255 255 255 255 255 251 255 255 255 255 255 255 255 255 
255 255 255 255 255 255 255 255 255 255 255 254 255 255 255 255 255 255 
255 255 255 255 255 255 255 255 255 255 255 255 255 255 255 255 255 255 
255 255 255 255 255 255 255 255 255 255 255 255 255 255 255 255 255 255 
255 255 255 255 255 255 255 255 255 255 255 255 255 255 255 255 255 255 
255 255 255 255 255 255 255 255 255 255 255 255 255 255 255 255 255 255 
255 255 255 255 255 
