P2
20 24
255
255 255 255 255 255 255 255 255 255 255 255 255 255 255 255 255 255 255 
255 220 255 255 255 255 255 255 255 255 249 249 243 249 249 255 255 255 
255 255 255 220 255 255 255 255 255 255 255 249 237 226 226 231 243 255 
255 255 255 255 255 220 255 255 255 255 255 255 249 237 208 197 168 208 
231 249 255 255 255 255 255 220 255 255 255 255 255 249 237 208 185 139 
144 191 220 243 255 255 255 255 255 220 255 255 255 255 255 243 220 191 
144 121 156 144 202 226 249 255 255 255 255 220 255 255 255 255 255 231 
208 150 144 156 162 150 191 214 243 255 255 255 255 220 255 255 255 255 
249 226 197 156 185 179 185 144 150 191 226 249 255 255 255 220 255 255 
255 255 243 214 191 150 179 191 185 173 144 185 214 243 255 255 255 220 
255 255 255 249 226 197 144 156 156 168 162 144 121 139 197 231 255 255 
255 220 255 255 255 243 214 185 133 144 115 133 127 150 150 144 191 226 
249 255 255 220 255 255 255 231 202 144 127 115 121 127 127 127 127 139 
185 214 243 255 255 220 255 255 255 226 202 150 168 168 179 185 185 191 
179 179 156 202 226 249 255 220 255 255 255 220 202 150 185 191 220 220 
220 220 197 179 144 185 208 243 255 220 255 255 255 220 208 162 208 220 
255 255 255 255 220 185 133 139 191 231 255 220 255 255 255 220 208 162 
208 220 255 255 255 255 220 185 127 139 185 231 255 220 255 255 255 226 
214 173 214 226 255 255 255 255 226 191 144 144 197 231 255 220 255 255 
255 231 226 185 226 231 255 255 255 255 231 214 168 202 214 243 255 220 
255 255 255 243 237 231 237 243 255 255 255 255 243 231 226 226 237 249 
255 220 255 255 255 249 249 243 249 249 255 255 255 255 249 249 243 249 
249 255 255 220 255 255 255 255 255 255 255 255 255 255 255 255 255 255 
255 255 255 255 255 220 255 255 255 255 255 255 255 255 255 255 255 255 
255 255 255 255 255 255 255 220 255 255 255 255 255 255 255 255 255 255 
255 255 255 255 255 255 255 255 255 220 255 255 255 255 255 255 255 255 
255 255 255 255 255 255 255 255 255 255 255 220 
